# xmcd CD database file
#
# Track frame offsets:
#	150
#	12409
#	27285
#	39228
#	52022
#	66073
#	79549
#	94401
#	106517
#	120332
#	131464
#	144575
#	158535
#	172464
#	184630
#	197974
#	212230
#	225772
#	237677
#	250795
#	265591
#	279795
#	293511
#	307106
#
# Disc length: 4272 seconds
#
# Revision: 0
# Processed by: cddbd v1.5.2PL0 Copyright (c) Steve Scherf et al.
# Submitted via: CDex 1.50beta10
#
DISCID=4410ae18
DTITLE=Ella Fitzgerald - The Complete Masters CD9
DYEAR=1948
DGENRE=Jazz
TTITLE0=Tea Leaves
TTITLE1=My Happiness
TTITLE2=It's Too Soon To Know
TTITLE3=I Can't Go On (Without You)
TTITLE4=To Make a Mistake is Human
TTITLE5=In My Dreams
TTITLE6=I Couldn't Stay Away From You
TTITLE7=Old Mother Hubbard
TTITLE8=Someone Like You
TTITLE9=Happy Talk
TTITLE10=I'm Gonna Wash That Man Right Out Of My Hair
TTITLE11=Black Coffee
TTITLE12=Lover's Gold
TTITLE13=Baby, It's Cold Outside
TTITLE14=Don't Cry, Cry Baby
TTITLE15=Crying
TTITLE16=A New Shade of Blues
TTITLE17=In the Evening (When the Sun Goes Down)
TTITLE18=Talk Fast, My Heart, Talk Fast
TTITLE19=I'm Waitin' for the Junkman
TTITLE20=Basin Street Blues
TTITLE21=I Hadn't Anyone Till You
TTITLE22=Dream a Little Longer
TTITLE23=Foolish Tears
EXTD=YEAR: 1948
EXTT0=
EXTT1=
EXTT2=
EXTT3=
EXTT4=
EXTT5=
EXTT6=
EXTT7=
EXTT8=
EXTT9=
EXTT10=
EXTT11=
EXTT12=
EXTT13=
EXTT14=
EXTT15=
EXTT16=
EXTT17=
EXTT18=
EXTT19=
EXTT20=
EXTT21=
EXTT22=
EXTT23=
PLAYORDER=
